<?xml version="1.0" encoding="UTF-8"?>
<svg width="902px" height="525px" viewBox="0 0 902 525" version="1.1" xmlns="http://www.w3.org/2000/svg" xmlns:xlink="http://www.w3.org/1999/xlink" xmlns:sketch="http://www.bohemiancoding.com/sketch/ns">
    <!-- Generator: Sketch 3.5.1 (25234) - http://www.bohemiancoding.com/sketch -->
    <title>sha256</title>
    <desc>Created with Sketch.</desc>
    <defs>
        <linearGradient x1="50%" y1="0%" x2="50%" y2="100%" id="linearGradient-1">
            <stop stop-color="#979797" offset="0%"></stop>
            <stop stop-color="#363636" offset="100%"></stop>
        </linearGradient>
        <linearGradient x1="50%" y1="0%" x2="50%" y2="100%" id="linearGradient-2">
            <stop stop-color="#F5515F" offset="0%"></stop>
            <stop stop-color="#9F031B" offset="100%"></stop>
        </linearGradient>
        <linearGradient x1="50%" y1="0%" x2="50%" y2="100%" id="linearGradient-3">
            <stop stop-color="#4A90E2" offset="0%"></stop>
            <stop stop-color="#2F588A" offset="100%"></stop>
        </linearGradient>
    </defs>
    <g id="Page-1" stroke="none" stroke-width="1" fill="none" fill-rule="evenodd" sketch:type="MSPage">
        <g id="arrow-Copy-6" sketch:type="MSLayerGroup" transform="translate(558.000000, 118.416375)" stroke="#979797" stroke-width="3">
            <path d="M2.0610005,0.862552938 L2.0610005,346.818121" id="Path-1" sketch:type="MSShapeGroup"></path>
            <path id="Path-1-decoration-1" d="M2.0610005,346.818121 L5.0610005,336.018121 L-0.938999495,336.018121 L2.0610005,346.818121 Z"></path>
        </g>
        <g id="arrow-Copy-5" sketch:type="MSLayerGroup" transform="translate(498.000000, 118.416375)" stroke="#979797" stroke-width="3">
            <path d="M2.0610005,0.862552938 L2.0610005,346.818121" id="Path-1" sketch:type="MSShapeGroup"></path>
            <path id="Path-1-decoration-1" d="M2.0610005,346.818121 L5.0610005,336.018121 L-0.938999495,336.018121 L2.0610005,346.818121 Z"></path>
        </g>
        <g id="arrow-Copy-4" sketch:type="MSLayerGroup" transform="translate(438.000000, 118.416375)" stroke="#979797" stroke-width="3">
            <path d="M2.0610005,0.862552938 L2.0610005,346.818121" id="Path-1" sketch:type="MSShapeGroup"></path>
            <path id="Path-1-decoration-1" d="M2.0610005,346.818121 L5.0610005,336.018121 L-0.938999495,336.018121 L2.0610005,346.818121 Z"></path>
        </g>
        <path d="M379.0305,121.322604 L379.0305,274.507052" id="Path-1" stroke="#979797" stroke-width="3" sketch:type="MSShapeGroup"></path>
        <path id="Path-1-decoration-1" d="M379.0305,274.507052 L382.0305,263.707052 L376.0305,263.707052 L379.0305,274.507052 Z" stroke="#979797" stroke-width="3"></path>
        <path d="M379.0305,305.499121 L379.0305,465.674051" id="Path-1" stroke="#979797" stroke-width="3" sketch:type="MSShapeGroup"></path>
        <path id="Path-1-decoration-1" d="M379.0305,465.674051 L382.0305,454.874051 L376.0305,454.874051 L379.0305,465.674051 Z" stroke="#979797" stroke-width="3"></path>
        <g id="arrow-Copy-2" sketch:type="MSLayerGroup" transform="translate(318.000000, 118.416375)" stroke="#979797" stroke-width="3">
            <path d="M2.0610005,0.862552938 L2.0610005,346.818121" id="Path-1" sketch:type="MSShapeGroup"></path>
            <path id="Path-1-decoration-1" d="M2.0610005,346.818121 L5.0610005,336.018121 L-0.938999495,336.018121 L2.0610005,346.818121 Z"></path>
        </g>
        <g id="arrow-Copy" sketch:type="MSLayerGroup" transform="translate(258.000000, 118.416375)" stroke="#979797" stroke-width="3">
            <path d="M2.0610005,0.862552938 L2.0610005,346.818121" id="Path-1" sketch:type="MSShapeGroup"></path>
            <path id="Path-1-decoration-1" d="M2.0610005,346.818121 L5.0610005,336.018121 L-0.938999495,336.018121 L2.0610005,346.818121 Z"></path>
        </g>
        <g id="arrow" sketch:type="MSLayerGroup" transform="translate(197.000000, 118.416375)" stroke="#979797" stroke-width="3">
            <path d="M2.0610005,0.862552938 L2.0610005,346.818121" id="Path-1" sketch:type="MSShapeGroup"></path>
            <path id="Path-1-decoration-1" d="M2.0610005,346.818121 L5.0610005,336.018121 L-0.938999495,336.018121 L2.0610005,346.818121 Z"></path>
        </g>
        <path d="M440.257738,158.416375 L613.512531,158.416375" id="Path-1" stroke="#979797" stroke-width="3" sketch:type="MSShapeGroup"></path>
        <path id="Path-1-decoration-1" d="M613.512531,158.416375 L602.712531,155.416375 L602.712531,161.416375 L613.512531,158.416375 Z" stroke="#979797" stroke-width="3"></path>
        <path d="M440.257738,246.416375 L613.512531,246.416375" id="Path-1" stroke="#979797" stroke-width="3" sketch:type="MSShapeGroup"></path>
        <path id="Path-1-decoration-1" d="M613.512531,246.416375 L602.712531,243.416375 L602.712531,249.416375 L613.512531,246.416375 Z" stroke="#979797" stroke-width="3"></path>
        <path d="M745.326634,296.416375 L398.296803,296.416375" id="Path-1" stroke="#979797" stroke-width="3" sketch:type="MSShapeGroup"></path>
        <path id="Path-1-decoration-1" d="M398.296803,296.416375 L409.096803,299.416375 L409.096803,293.416375 L398.296803,296.416375 Z" stroke="#979797" stroke-width="3"></path>
        <path d="M500.432161,171.416375 L613.512531,171.416375" id="Path-1" stroke="#979797" stroke-width="3" sketch:type="MSShapeGroup"></path>
        <path id="Path-1-decoration-1" d="M613.512531,171.416375 L602.712531,168.416375 L602.712531,174.416375 L613.512531,171.416375 Z" stroke="#979797" stroke-width="3"></path>
        <path d="M560.499934,185.416375 L613.512531,185.416375" id="Path-1" stroke="#979797" stroke-width="3" sketch:type="MSShapeGroup"></path>
        <path id="Path-1-decoration-1" d="M613.512531,185.416375 L602.712531,182.416375 L602.712531,188.416375 L613.512531,185.416375 Z" stroke="#979797" stroke-width="3"></path>
        <path d="M670.499934,169.416375 L723.512531,169.416375" id="Path-1" stroke="#979797" stroke-width="3" sketch:type="MSShapeGroup"></path>
        <path id="Path-1-decoration-1" d="M723.512531,169.416375 L712.712531,166.416375 L712.712531,172.416375 L723.512531,169.416375 Z" stroke="#979797" stroke-width="3"></path>
        <path d="M881.499934,169.416375 L846.512531,169.416375" id="Path-1" stroke="#979797" stroke-width="3" sketch:type="MSShapeGroup"></path>
        <path id="Path-1-decoration-1" d="M846.512531,169.416375 L857.312531,172.416375 L857.312531,166.416375 L846.512531,169.416375 Z" stroke="#979797" stroke-width="3"></path>
        <path d="M821.499934,169.416375 L766.512531,169.416375" id="Path-1" stroke="#979797" stroke-width="3" sketch:type="MSShapeGroup"></path>
        <path id="Path-1-decoration-1" d="M766.512531,169.416375 L777.312531,172.416375 L777.312531,166.416375 L766.512531,169.416375 Z" stroke="#979797" stroke-width="3"></path>
        <path d="M643.499934,95.4163748 L745,95.4163748 L745,148.531081" id="Path-1" stroke="#979797" stroke-width="3" sketch:type="MSShapeGroup"></path>
        <path id="Path-1-decoration-1" d="M745,148.531081 L748,137.731081 L742,137.731081 L745,148.531081 Z" stroke="#979797" stroke-width="3"></path>
        <path d="M825,115.496216 L825,148.531081" id="Path-1" stroke="#979797" stroke-width="3" sketch:type="MSShapeGroup"></path>
        <path id="Path-1-decoration-1" d="M825,148.531081 L828,137.731081 L822,137.731081 L825,148.531081 Z" stroke="#979797" stroke-width="3"></path>
        <path d="M745,177.497285 L745,223.531081" id="Path-1" stroke="#979797" stroke-width="3" sketch:type="MSShapeGroup"></path>
        <path id="Path-1-decoration-1" d="M745,223.531081 L748,212.731081 L742,212.731081 L745,223.531081 Z" stroke="#979797" stroke-width="3"></path>
        <path d="M745,345.497687 L745,399.531081" id="Path-1" stroke="#979797" stroke-width="3" sketch:type="MSShapeGroup"></path>
        <path id="Path-1-decoration-1" d="M745,399.531081 L748,388.731081 L742,388.731081 L745,399.531081 Z" stroke="#979797" stroke-width="3"></path>
        <path d="M745,428.497687 L745,500.531081" id="Path-1" stroke="#979797" stroke-width="3" sketch:type="MSShapeGroup"></path>
        <path d="M745,253.454081 L745,321.531081" id="Path-1" stroke="#979797" stroke-width="3" sketch:type="MSShapeGroup"></path>
        <path id="Path-1-decoration-1" d="M745,321.531081 L748,310.731081 L742,310.731081 L745,321.531081 Z" stroke="#979797" stroke-width="3"></path>
        <path d="M670.499934,345.416375 L723.512531,345.416375" id="Path-1" stroke="#979797" stroke-width="3" sketch:type="MSShapeGroup"></path>
        <path id="Path-1-decoration-1" d="M723.512531,345.416375 L712.712531,342.416375 L712.712531,348.416375 L723.512531,345.416375 Z" stroke="#979797" stroke-width="3"></path>
        <path d="M670.499934,421.416375 L723.512531,421.416375" id="Path-1" stroke="#979797" stroke-width="3" sketch:type="MSShapeGroup"></path>
        <path id="Path-1-decoration-1" d="M723.512531,421.416375 L712.712531,418.416375 L712.712531,424.416375 L723.512531,421.416375 Z" stroke="#979797" stroke-width="3"></path>
        <path d="M745.890926,499.416375 L651.512531,499.416375" id="Path-1" stroke="#979797" stroke-width="3" sketch:type="MSShapeGroup"></path>
        <path id="Path-1-decoration-1" d="M651.512531,499.416375 L662.312531,502.416375 L662.312531,496.416375 L651.512531,499.416375 Z" stroke="#979797" stroke-width="3"></path>
        <g id="plus" sketch:type="MSLayerGroup" transform="translate(726.000000, 394.000000)">
            <g id="gate" transform="translate(4.000000, 10.000000)" fill="url(#linearGradient-1)" sketch:type="MSShapeGroup">
                <rect id="Rectangle-13" x="0" y="0" width="31" height="31" rx="5"></rect>
            </g>
            <text id="A" sketch:type="MSTextLayer" font-family="Helvetica" font-size="37" font-weight="normal" sketch:alignment="middle" fill="#FFFFFF">
                <tspan x="8.69628906" y="35">+</tspan>
            </text>
        </g>
        <g id="plus" sketch:type="MSLayerGroup" transform="translate(726.000000, 318.000000)">
            <g id="gate" transform="translate(4.000000, 10.000000)" fill="url(#linearGradient-1)" sketch:type="MSShapeGroup">
                <rect id="Rectangle-13" x="0" y="0" width="31" height="31" rx="5"></rect>
            </g>
            <text id="A" sketch:type="MSTextLayer" font-family="Helvetica" font-size="37" font-weight="normal" sketch:alignment="middle" fill="#FFFFFF">
                <tspan x="8.69628906" y="35">+</tspan>
            </text>
        </g>
        <path d="M670.499934,246.416375 L723.512531,246.416375" id="Path-1" stroke="#979797" stroke-width="3" sketch:type="MSShapeGroup"></path>
        <path id="Path-1-decoration-1" d="M723.512531,246.416375 L712.712531,243.416375 L712.712531,249.416375 L723.512531,246.416375 Z" stroke="#979797" stroke-width="3"></path>
        <g id="plus" sketch:type="MSLayerGroup" transform="translate(726.000000, 219.000000)">
            <g id="gate" transform="translate(4.000000, 10.000000)" fill="url(#linearGradient-1)" sketch:type="MSShapeGroup">
                <rect id="Rectangle-13" x="0" y="0" width="31" height="31" rx="5"></rect>
            </g>
            <text id="A" sketch:type="MSTextLayer" font-family="Helvetica" font-size="37" font-weight="normal" sketch:alignment="middle" fill="#FFFFFF">
                <tspan x="8.69628906" y="35">+</tspan>
            </text>
        </g>
        <g id="plus" sketch:type="MSLayerGroup" transform="translate(360.000000, 271.000000)">
            <g id="gate" transform="translate(4.000000, 10.000000)" fill="url(#linearGradient-1)" sketch:type="MSShapeGroup">
                <rect id="Rectangle-13" x="0" y="0" width="31" height="31" rx="5"></rect>
            </g>
            <text id="A" sketch:type="MSTextLayer" font-family="Helvetica" font-size="37" font-weight="normal" sketch:alignment="middle" fill="#FFFFFF">
                <tspan x="8.69628906" y="35">+</tspan>
            </text>
        </g>
        <g id="gate" sketch:type="MSLayerGroup" transform="translate(619.000000, 321.000000)">
            <rect id="Rectangle-13" fill="url(#linearGradient-1)" sketch:type="MSShapeGroup" x="0" y="0" width="52" height="52" rx="5"></rect>
            <text id="A" sketch:type="MSTextLayer" font-family="Helvetica" font-size="25" font-weight="normal" sketch:alignment="middle" fill="#FFFFFF">
                <tspan x="5.85839844" y="35">Maj</tspan>
            </text>
        </g>
        <g id="gate" sketch:type="MSLayerGroup" transform="translate(619.000000, 145.000000)">
            <rect id="Rectangle-13" fill="url(#linearGradient-1)" sketch:type="MSShapeGroup" x="0" y="0" width="52" height="52" rx="5"></rect>
            <text id="A" sketch:type="MSTextLayer" font-family="Helvetica" font-size="25" font-weight="normal" sketch:alignment="middle" fill="#FFFFFF">
                <tspan x="10.0209961" y="35">Ch</tspan>
            </text>
        </g>
        <g id="gate" sketch:type="MSLayerGroup" transform="translate(619.000000, 220.000000)">
            <g id="Rectangle-13" fill="url(#linearGradient-1)" sketch:type="MSShapeGroup">
                <rect x="0" y="0" width="52" height="52" rx="5"></rect>
            </g>
            <text id="A" sketch:type="MSTextLayer" font-family="Helvetica" font-size="25" font-weight="normal" sketch:alignment="middle" fill="#FFFFFF">
                <tspan x="13.6572266" y="33">S</tspan>
                <tspan x="30.3320312" y="33" font-size="18">1</tspan>
            </text>
        </g>
        <path d="M200.424139,331.416375 L613.512531,331.416375" id="Path-1" stroke="#979797" stroke-width="3" sketch:type="MSShapeGroup"></path>
        <path id="Path-1-decoration-1" d="M613.512531,331.416375 L602.712531,328.416375 L602.712531,334.416375 L613.512531,331.416375 Z" stroke="#979797" stroke-width="3"></path>
        <path d="M200.424139,422.416375 L613.512531,422.416375" id="Path-1" stroke="#979797" stroke-width="3" sketch:type="MSShapeGroup"></path>
        <path id="Path-1-decoration-1" d="M613.512531,422.416375 L602.712531,419.416375 L602.712531,425.416375 L613.512531,422.416375 Z" stroke="#979797" stroke-width="3"></path>
        <path d="M260.487954,344.416375 L613.512531,344.416375" id="Path-1" stroke="#979797" stroke-width="3" sketch:type="MSShapeGroup"></path>
        <path id="Path-1-decoration-1" d="M613.512531,344.416375 L602.712531,341.416375 L602.712531,347.416375 L613.512531,344.416375 Z" stroke="#979797" stroke-width="3"></path>
        <path d="M321.497989,358.416375 L613.512531,358.416375" id="Path-1" stroke="#979797" stroke-width="3" sketch:type="MSShapeGroup"></path>
        <path id="Path-1-decoration-1" d="M613.512531,358.416375 L602.712531,355.416375 L602.712531,361.416375 L613.512531,358.416375 Z" stroke="#979797" stroke-width="3"></path>
        <g id="Bottom" sketch:type="MSLayerGroup" transform="translate(0.000000, 473.000000)">
            <g id="Letter2" transform="translate(592.000000, 0.000000)">
                <rect id="Rectangle-13" fill="url(#linearGradient-2)" sketch:type="MSShapeGroup" x="0" y="0" width="52" height="52" rx="5"></rect>
                <text id="A" sketch:type="MSTextLayer" font-family="Helvetica" font-size="36" font-weight="normal" sketch:alignment="middle" fill="#FFFFFF">
                    <tspan x="13.4941406" y="39">A</tspan>
                </text>
            </g>
            <g id="Letter" transform="translate(292.000000, 0.000000)">
                <rect id="Rectangle-13" fill="url(#linearGradient-2)" sketch:type="MSShapeGroup" x="0" y="0" width="52" height="52" rx="5"></rect>
                <text id="A" sketch:type="MSTextLayer" font-family="Helvetica" font-size="36" font-weight="normal" sketch:alignment="middle" fill="#FFFFFF">
                    <tspan x="12.5009766" y="39">D</tspan>
                </text>
            </g>
            <g id="Letter" transform="translate(352.000000, 0.000000)">
                <rect id="Rectangle-13" fill="url(#linearGradient-2)" sketch:type="MSShapeGroup" x="0" y="0" width="52" height="52" rx="5"></rect>
                <text id="A" sketch:type="MSTextLayer" font-family="Helvetica" font-size="36" font-weight="normal" sketch:alignment="middle" fill="#FFFFFF">
                    <tspan x="13.4941406" y="39">E</tspan>
                </text>
            </g>
            <g id="Letter" transform="translate(472.000000, 0.000000)">
                <rect id="Rectangle-13" fill="url(#linearGradient-2)" sketch:type="MSShapeGroup" x="0" y="0" width="52" height="52" rx="5"></rect>
                <text id="A" sketch:type="MSTextLayer" font-family="Helvetica" font-size="36" font-weight="normal" sketch:alignment="middle" fill="#FFFFFF">
                    <tspan x="11.4990234" y="39">G</tspan>
                </text>
            </g>
            <g id="Letter" transform="translate(532.000000, 0.000000)">
                <rect id="Rectangle-13" fill="url(#linearGradient-2)" sketch:type="MSShapeGroup" x="0" y="0" width="52" height="52" rx="5"></rect>
                <text id="A" sketch:type="MSTextLayer" font-family="Helvetica" font-size="36" font-weight="normal" sketch:alignment="middle" fill="#FFFFFF">
                    <tspan x="12.5009766" y="39">H</tspan>
                </text>
            </g>
            <g id="Letter" transform="translate(412.000000, 0.000000)">
                <rect id="Rectangle-13" fill="url(#linearGradient-2)" sketch:type="MSShapeGroup" x="0" y="0" width="52" height="52" rx="5"></rect>
                <text id="A" sketch:type="MSTextLayer" font-family="Helvetica" font-size="36" font-weight="normal" sketch:alignment="middle" fill="#FFFFFF">
                    <tspan x="14.5048828" y="39">F</tspan>
                </text>
            </g>
            <g id="Letter" transform="translate(172.000000, 0.000000)">
                <rect id="Rectangle-13" fill="url(#linearGradient-2)" sketch:type="MSShapeGroup" x="0" y="0" width="52" height="52" rx="5"></rect>
                <text id="A" sketch:type="MSTextLayer" font-family="Helvetica" font-size="36" font-weight="normal" sketch:alignment="middle" fill="#FFFFFF">
                    <tspan x="13.4941406" y="39">B</tspan>
                </text>
            </g>
            <g id="Letter" transform="translate(232.000000, 0.000000)">
                <rect id="Rectangle-13" fill="url(#linearGradient-2)" sketch:type="MSShapeGroup" x="0" y="0" width="52" height="52" rx="5"></rect>
                <text id="A" sketch:type="MSTextLayer" font-family="Helvetica" font-size="36" font-weight="normal" sketch:alignment="middle" fill="#FFFFFF">
                    <tspan x="12.5009766" y="39">C</tspan>
                </text>
            </g>
            <text id="Result-of-round-i" sketch:type="MSTextLayer" font-family="Helvetica" font-size="18" font-weight="normal" sketch:alignment="right" fill="#4A4A4A">
                <tspan x="0.926757812" y="33">Result of round </tspan>
                <tspan x="127.999023" y="33" font-weight="bold">i</tspan>
            </text>
        </g>
        <g id="Top" sketch:type="MSLayerGroup" transform="translate(13.000000, 70.000000)">
            <text id="From-round-i-1" sketch:type="MSTextLayer" font-family="Helvetica" font-size="18" font-weight="normal" sketch:alignment="right" fill="#4A4A4A">
                <tspan x="0.9609375" y="33">From round </tspan>
                <tspan x="98.9941406" y="33" font-weight="bold">i-1</tspan>
            </text>
            <g id="Letter" transform="translate(159.000000, 0.000000)">
                <rect id="Rectangle-13" fill="url(#linearGradient-3)" sketch:type="MSShapeGroup" x="0" y="0" width="52" height="52" rx="5"></rect>
                <text id="A" sketch:type="MSTextLayer" font-family="Helvetica" font-size="36" font-weight="normal" sketch:alignment="middle" fill="#FFFFFF">
                    <tspan x="13.4941406" y="39">A</tspan>
                </text>
            </g>
            <g id="Letter" transform="translate(339.000000, 0.000000)">
                <rect id="Rectangle-13" fill="url(#linearGradient-3)" sketch:type="MSShapeGroup" x="0" y="0" width="52" height="52" rx="5"></rect>
                <text id="A" sketch:type="MSTextLayer" font-family="Helvetica" font-size="36" font-weight="normal" sketch:alignment="middle" fill="#FFFFFF">
                    <tspan x="12.5009766" y="39">D</tspan>
                </text>
            </g>
            <g id="Letter" transform="translate(399.000000, 0.000000)">
                <rect id="Rectangle-13" fill="url(#linearGradient-3)" sketch:type="MSShapeGroup" x="0" y="0" width="52" height="52" rx="5"></rect>
                <text id="A" sketch:type="MSTextLayer" font-family="Helvetica" font-size="36" font-weight="normal" sketch:alignment="middle" fill="#FFFFFF">
                    <tspan x="13.4941406" y="39">E</tspan>
                </text>
            </g>
            <g id="Letter" transform="translate(519.000000, 0.000000)">
                <rect id="Rectangle-13" fill="url(#linearGradient-3)" sketch:type="MSShapeGroup" x="0" y="0" width="52" height="52" rx="5"></rect>
                <text id="A" sketch:type="MSTextLayer" font-family="Helvetica" font-size="36" font-weight="normal" sketch:alignment="middle" fill="#FFFFFF">
                    <tspan x="11.4990234" y="39">G</tspan>
                </text>
            </g>
            <g id="Letter" transform="translate(579.000000, 0.000000)">
                <rect id="Rectangle-13" fill="url(#linearGradient-3)" sketch:type="MSShapeGroup" x="0" y="0" width="52" height="52" rx="5"></rect>
                <text id="A" sketch:type="MSTextLayer" font-family="Helvetica" font-size="36" font-weight="normal" sketch:alignment="middle" fill="#FFFFFF">
                    <tspan x="12.5009766" y="39">H</tspan>
                </text>
            </g>
            <g id="Letter" transform="translate(459.000000, 0.000000)">
                <rect id="Rectangle-13" fill="url(#linearGradient-3)" sketch:type="MSShapeGroup" x="0" y="0" width="52" height="52" rx="5"></rect>
                <text id="A" sketch:type="MSTextLayer" font-family="Helvetica" font-size="36" font-weight="normal" sketch:alignment="middle" fill="#FFFFFF">
                    <tspan x="14.5048828" y="39">F</tspan>
                </text>
            </g>
            <g id="Letter" transform="translate(219.000000, 0.000000)">
                <rect id="Rectangle-13" fill="url(#linearGradient-3)" sketch:type="MSShapeGroup" x="0" y="0" width="52" height="52" rx="5"></rect>
                <text id="A" sketch:type="MSTextLayer" font-family="Helvetica" font-size="36" font-weight="normal" sketch:alignment="middle" fill="#FFFFFF">
                    <tspan x="13.4941406" y="39">B</tspan>
                </text>
            </g>
            <g id="Letter" transform="translate(279.000000, 0.000000)">
                <rect id="Rectangle-13" fill="url(#linearGradient-3)" sketch:type="MSShapeGroup" x="0" y="0" width="52" height="52" rx="5"></rect>
                <text id="A" sketch:type="MSTextLayer" font-family="Helvetica" font-size="36" font-weight="normal" sketch:alignment="middle" fill="#FFFFFF">
                    <tspan x="12.5009766" y="39">C</tspan>
                </text>
            </g>
        </g>
        <g id="gate" sketch:type="MSLayerGroup" transform="translate(619.000000, 396.000000)">
            <g id="Rectangle-13" fill="url(#linearGradient-1)" sketch:type="MSShapeGroup">
                <rect x="0" y="0" width="52" height="52" rx="5"></rect>
            </g>
            <text id="A" sketch:type="MSTextLayer" font-family="Helvetica" font-size="25" font-weight="normal" sketch:alignment="middle" fill="#FFFFFF">
                <tspan x="13.6572266" y="33">S</tspan>
                <tspan x="30.3320312" y="33" font-size="18">0</tspan>
            </text>
        </g>
        <g id="plus" sketch:type="MSLayerGroup" transform="translate(726.000000, 142.000000)">
            <g id="gate" transform="translate(4.000000, 10.000000)" fill="url(#linearGradient-1)" sketch:type="MSShapeGroup">
                <rect id="Rectangle-13" x="0" y="0" width="31" height="31" rx="5"></rect>
            </g>
            <text id="A" sketch:type="MSTextLayer" font-family="Helvetica" font-size="37" font-weight="normal" sketch:alignment="middle" fill="#FFFFFF">
                <tspan x="8.69628906" y="35">+</tspan>
            </text>
        </g>
        <g id="plus" sketch:type="MSLayerGroup" transform="translate(806.000000, 143.000000)">
            <g id="gate" transform="translate(4.000000, 10.000000)" fill="url(#linearGradient-1)" sketch:type="MSShapeGroup">
                <rect id="Rectangle-13" x="0" y="0" width="31" height="31" rx="5"></rect>
            </g>
            <text id="A" sketch:type="MSTextLayer" font-family="Helvetica" font-size="37" font-weight="normal" sketch:alignment="middle" fill="#FFFFFF">
                <tspan x="8.69628906" y="35">+</tspan>
            </text>
        </g>
        <text id="A" sketch:type="MSTextLayer" font-family="Helvetica" font-size="25" font-weight="normal" sketch:alignment="middle" fill="#4A4A4A">
            <tspan x="815.473389" y="106">w</tspan>
            <tspan x="833.527588" y="106" font-size="18">i</tspan>
        </text>
        <text id="A" sketch:type="MSTextLayer" font-family="Helvetica" font-size="25" font-weight="normal" sketch:alignment="middle" fill="#4A4A4A">
            <tspan x="885.250488" y="176">k</tspan>
            <tspan x="897.750488" y="176" font-size="18">i</tspan>
        </text>
        <text id="A" sketch:type="MSTextLayer" font-family="Helvetica" font-size="25" font-weight="normal" fill="#979797">
            <tspan x="753" y="302">t</tspan>
            <tspan x="759.945801" y="302" font-size="18">1</tspan>
        </text>
        <text id="A" sketch:type="MSTextLayer" font-family="Helvetica" font-size="25" font-weight="normal" fill="#979797">
            <tspan x="753" y="472">t</tspan>
            <tspan x="759.945801" y="472" font-size="18">1</tspan>
            <tspan x="769.956543" y="472">+t</tspan>
            <tspan x="791.501953" y="472" font-size="18">2</tspan>
        </text>
        <text id="One-SHA-256-round" sketch:type="MSTextLayer" font-family="Helvetica" font-size="25" font-weight="normal" sketch:alignment="middle" fill="#4A4A4A">
            <tspan x="324.237061" y="24">One SHA-256 round</tspan>
        </text>
    </g>
</svg>